<?xml version="1.0" encoding="UTF-8" standalone="no"?><svg xmlns="http://www.w3.org/2000/svg" xmlns:xlink="http://www.w3.org/1999/xlink" contentScriptType="application/ecmascript" contentStyleType="text/css" height="286px" preserveAspectRatio="none" style="width:535px;height:286px;background:#FFFFFF;" version="1.1" viewBox="0 0 535 286" width="535px" zoomAndPan="magnify"><defs><filter height="300%" id="fl7og02y5zypo" width="300%" x="-1" y="-1"><feGaussianBlur result="blurOut" stdDeviation="2.0"/><feColorMatrix in="blurOut" result="blurOut2" type="matrix" values="0 0 0 0 0 0 0 0 0 0 0 0 0 0 0 0 0 0 .4 0"/><feOffset dx="4.0" dy="4.0" in="blurOut2" result="blurOut3"/><feBlend in="SourceGraphic" in2="blurOut3" mode="normal"/></filter></defs><g><rect fill="#FFFFFF" filter="url(#fl7og02y5zypo)" height="139.7578" style="stroke:#000000;stroke-width:2.0;" width="511.5" x="10" y="71.6094"/><line style="stroke:#A80036;stroke-width:1.0;stroke-dasharray:5.0,5.0;" x1="42" x2="42" y1="54.6094" y2="228.3672"/><line style="stroke:#A80036;stroke-width:1.0;stroke-dasharray:5.0,5.0;" x1="136" x2="136" y1="54.6094" y2="228.3672"/><line style="stroke:#A80036;stroke-width:1.0;stroke-dasharray:5.0,5.0;" x1="437.5" x2="437.5" y1="54.6094" y2="228.3672"/><text fill="#000000" font-family="sans-serif" font-size="14" lengthAdjust="spacing" textLength="39" x="20" y="51.5332">Tower</text><ellipse cx="42.5" cy="21" fill="#FEFECE" filter="url(#fl7og02y5zypo)" rx="12" ry="12" style="stroke:#A80036;stroke-width:2.0;"/><line style="stroke:#A80036;stroke-width:2.0;" x1="30.5" x2="54.5" y1="35" y2="35"/><text fill="#000000" font-family="sans-serif" font-size="14" lengthAdjust="spacing" textLength="39" x="20" y="241.9004">Tower</text><ellipse cx="42.5" cy="260.9766" fill="#FEFECE" filter="url(#fl7og02y5zypo)" rx="12" ry="12" style="stroke:#A80036;stroke-width:2.0;"/><line style="stroke:#A80036;stroke-width:2.0;" x1="30.5" x2="54.5" y1="274.9766" y2="274.9766"/><text fill="#000000" font-family="sans-serif" font-size="14" lengthAdjust="spacing" textLength="117" x="75" y="51.5332">TowerSpawnLayer</text><path d="M116,9 L116,33 M116,21 L133,21 " fill="none" filter="url(#fl7og02y5zypo)" style="stroke:#A80036;stroke-width:2.0;"/><ellipse cx="145" cy="21" fill="#FEFECE" filter="url(#fl7og02y5zypo)" rx="12" ry="12" style="stroke:#A80036;stroke-width:2.0;"/><text fill="#000000" font-family="sans-serif" font-size="14" lengthAdjust="spacing" textLength="117" x="75" y="241.9004">TowerSpawnLayer</text><path d="M116,248.9766 L116,272.9766 M116,260.9766 L133,260.9766 " fill="none" filter="url(#fl7og02y5zypo)" style="stroke:#A80036;stroke-width:2.0;"/><ellipse cx="145" cy="260.9766" fill="#FEFECE" filter="url(#fl7og02y5zypo)" rx="12" ry="12" style="stroke:#A80036;stroke-width:2.0;"/><text fill="#000000" font-family="sans-serif" font-size="14" lengthAdjust="spacing" textLength="142" x="363.5" y="51.5332">MonsterSpawnerLayer</text><path d="M417,9 L417,33 M417,21 L434,21 " fill="none" filter="url(#fl7og02y5zypo)" style="stroke:#A80036;stroke-width:2.0;"/><ellipse cx="446" cy="21" fill="#FEFECE" filter="url(#fl7og02y5zypo)" rx="12" ry="12" style="stroke:#A80036;stroke-width:2.0;"/><text fill="#000000" font-family="sans-serif" font-size="14" lengthAdjust="spacing" textLength="142" x="363.5" y="241.9004">MonsterSpawnerLayer</text><path d="M417,248.9766 L417,272.9766 M417,260.9766 L434,260.9766 " fill="none" filter="url(#fl7og02y5zypo)" style="stroke:#A80036;stroke-width:2.0;"/><ellipse cx="446" cy="260.9766" fill="#FEFECE" filter="url(#fl7og02y5zypo)" rx="12" ry="12" style="stroke:#A80036;stroke-width:2.0;"/><path d="M10,71.6094 L87,71.6094 L87,79.6094 L77,89.6094 L10,89.6094 L10,71.6094 " fill="#EEEEEE" style="stroke:#000000;stroke-width:1.0;"/><rect fill="none" height="139.7578" style="stroke:#000000;stroke-width:2.0;" width="511.5" x="10" y="71.6094"/><text fill="#000000" font-family="sans-serif" font-size="13" font-weight="bold" lengthAdjust="spacing" textLength="32" x="25" y="86.1045">Loop</text><polygon fill="#A80036" points="124.5,108.3125,134.5,112.3125,124.5,116.3125,128.5,112.3125" style="stroke:#A80036;stroke-width:1.0;"/><line style="stroke:#A80036;stroke-width:1.0;" x1="42.5" x2="130.5" y1="112.3125" y2="112.3125"/><text fill="#000000" font-family="sans-serif" font-size="13" lengthAdjust="spacing" textLength="62" x="49.5" y="107.4561">getTarget()</text><polygon fill="#A80036" points="425.5,138.6641,435.5,142.6641,425.5,146.6641,429.5,142.6641" style="stroke:#A80036;stroke-width:1.0;"/><line style="stroke:#A80036;stroke-width:1.0;" x1="136.5" x2="431.5" y1="142.6641" y2="142.6641"/><text fill="#000000" font-family="sans-serif" font-size="13" lengthAdjust="spacing" textLength="277" x="143.5" y="137.8076">getTargetFromPosition(index, towerTargetMode)</text><polygon fill="#A80036" points="147.5,169.0156,137.5,173.0156,147.5,177.0156,143.5,173.0156" style="stroke:#A80036;stroke-width:1.0;"/><line style="stroke:#A80036;stroke-width:1.0;" x1="141.5" x2="436.5" y1="173.0156" y2="173.0156"/><text fill="#000000" font-family="sans-serif" font-size="13" lengthAdjust="spacing" textLength="57" x="153.5" y="168.1592">monsterId</text><polygon fill="#A80036" points="53.5,199.3672,43.5,203.3672,53.5,207.3672,49.5,203.3672" style="stroke:#A80036;stroke-width:1.0;"/><line style="stroke:#A80036;stroke-width:1.0;" x1="47.5" x2="135.5" y1="203.3672" y2="203.3672"/><text fill="#000000" font-family="sans-serif" font-size="13" lengthAdjust="spacing" textLength="62" x="59.5" y="198.5107">setTarget()</text><!--MD5=[43fe76f0de75ddc2f6c405b8a9d2a0e5]
@startuml

entity Tower as Tower
boundary TowerSpawnLayer as TowerLayer
boundary MonsterSpawnerLayer as MonsterLayer

group Loop 
Tower -> TowerLayer : getTarget()
TowerLayer -> MonsterLayer : getTargetFromPosition(index, towerTargetMode)
MonsterLayer -> TowerLayer : monsterId
TowerLayer -> Tower : setTarget()

end

@enduml

PlantUML version 1.2022.0(Tue Jan 11 08:16:42 PST 2022)
(GPL source distribution)
Java Runtime: OpenJDK Runtime Environment
JVM: OpenJDK 64-Bit Server VM
Default Encoding: Cp1252
Language: en
Country: US
--></g></svg>