<?xml version="1.0" encoding="UTF-8" standalone="no"?><svg xmlns="http://www.w3.org/2000/svg" xmlns:xlink="http://www.w3.org/1999/xlink" contentScriptType="application/ecmascript" contentStyleType="text/css" height="461px" preserveAspectRatio="none" style="width:667px;height:461px;background:#FFFFFF;" version="1.1" viewBox="0 0 667 461" width="667px" zoomAndPan="magnify"><defs><filter height="300%" id="fjqb2u2btdanq" width="300%" x="-1" y="-1"><feGaussianBlur result="blurOut" stdDeviation="2.0"/><feColorMatrix in="blurOut" result="blurOut2" type="matrix" values="0 0 0 0 0 0 0 0 0 0 0 0 0 0 0 0 0 0 .4 0"/><feOffset dx="4.0" dy="4.0" in="blurOut2" result="blurOut3"/><feBlend in="SourceGraphic" in2="blurOut3" mode="normal"/></filter></defs><g><rect fill="#FFFFFF" filter="url(#fjqb2u2btdanq)" height="251.4609" style="stroke:#A80036;stroke-width:1.0;" width="10" x="325.5" y="99.6094"/><rect fill="#FFFFFF" filter="url(#fjqb2u2btdanq)" height="252.4609" style="stroke:#000000;stroke-width:2.0;" width="643" x="10" y="106.6094"/><line style="stroke:#A80036;stroke-width:1.0;stroke-dasharray:5.0,5.0;" x1="45" x2="45" y1="89.6094" y2="376.0703"/><line style="stroke:#A80036;stroke-width:1.0;stroke-dasharray:5.0,5.0;" x1="330.5" x2="330.5" y1="89.6094" y2="376.0703"/><line style="stroke:#A80036;stroke-width:1.0;stroke-dasharray:5.0,5.0;" x1="617" x2="617" y1="89.6094" y2="376.0703"/><text fill="#000000" font-family="sans-serif" font-size="14" lengthAdjust="spacing" textLength="45" x="20" y="86.5332">ClientA</text><ellipse cx="45.5" cy="15" fill="#FEFECE" filter="url(#fjqb2u2btdanq)" rx="8" ry="8" style="stroke:#A80036;stroke-width:2.0;"/><path d="M45.5,23 L45.5,50 M32.5,31 L58.5,31 M45.5,50 L32.5,65 M45.5,50 L58.5,65 " fill="none" filter="url(#fjqb2u2btdanq)" style="stroke:#A80036;stroke-width:2.0;"/><text fill="#000000" font-family="sans-serif" font-size="14" lengthAdjust="spacing" textLength="45" x="20" y="389.6035">ClientA</text><ellipse cx="45.5" cy="402.6797" fill="#FEFECE" filter="url(#fjqb2u2btdanq)" rx="8" ry="8" style="stroke:#A80036;stroke-width:2.0;"/><path d="M45.5,410.6797 L45.5,437.6797 M32.5,418.6797 L58.5,418.6797 M45.5,437.6797 L32.5,452.6797 M45.5,437.6797 L58.5,452.6797 " fill="none" filter="url(#fjqb2u2btdanq)" style="stroke:#A80036;stroke-width:2.0;"/><text fill="#000000" font-family="sans-serif" font-size="14" lengthAdjust="spacing" textLength="80" x="287.5" y="86.5332">BattleHandle</text><ellipse cx="330.5" cy="56" fill="#FEFECE" filter="url(#fjqb2u2btdanq)" rx="12" ry="12" style="stroke:#A80036;stroke-width:2.0;"/><polygon fill="#A80036" points="326.5,44,332.5,39,330.5,44,332.5,49,326.5,44" style="stroke:#A80036;stroke-width:1.0;"/><text fill="#000000" font-family="sans-serif" font-size="14" lengthAdjust="spacing" textLength="80" x="287.5" y="389.6035">BattleHandle</text><ellipse cx="330.5" cy="408.6797" fill="#FEFECE" filter="url(#fjqb2u2btdanq)" rx="12" ry="12" style="stroke:#A80036;stroke-width:2.0;"/><polygon fill="#A80036" points="326.5,396.6797,332.5,391.6797,330.5,396.6797,332.5,401.6797,326.5,396.6797" style="stroke:#A80036;stroke-width:1.0;"/><text fill="#000000" font-family="sans-serif" font-size="14" lengthAdjust="spacing" textLength="45" x="592" y="86.5332">ClientB</text><ellipse cx="617.5" cy="15" fill="#FEFECE" filter="url(#fjqb2u2btdanq)" rx="8" ry="8" style="stroke:#A80036;stroke-width:2.0;"/><path d="M617.5,23 L617.5,50 M604.5,31 L630.5,31 M617.5,50 L604.5,65 M617.5,50 L630.5,65 " fill="none" filter="url(#fjqb2u2btdanq)" style="stroke:#A80036;stroke-width:2.0;"/><text fill="#000000" font-family="sans-serif" font-size="14" lengthAdjust="spacing" textLength="45" x="592" y="389.6035">ClientB</text><ellipse cx="617.5" cy="402.6797" fill="#FEFECE" filter="url(#fjqb2u2btdanq)" rx="8" ry="8" style="stroke:#A80036;stroke-width:2.0;"/><path d="M617.5,410.6797 L617.5,437.6797 M604.5,418.6797 L630.5,418.6797 M617.5,437.6797 L604.5,452.6797 M617.5,437.6797 L630.5,452.6797 " fill="none" filter="url(#fjqb2u2btdanq)" style="stroke:#A80036;stroke-width:2.0;"/><rect fill="#FFFFFF" filter="url(#fjqb2u2btdanq)" height="251.4609" style="stroke:#A80036;stroke-width:1.0;" width="10" x="325.5" y="99.6094"/><path d="M10,106.6094 L177,106.6094 L177,114.6094 L167,124.6094 L10,124.6094 L10,106.6094 " fill="#EEEEEE" style="stroke:#000000;stroke-width:1.0;"/><rect fill="none" height="252.4609" style="stroke:#000000;stroke-width:2.0;" width="643" x="10" y="106.6094"/><text fill="#000000" font-family="sans-serif" font-size="13" font-weight="bold" lengthAdjust="spacing" textLength="122" x="25" y="121.1045">Khởi tạo game đấu</text><line style="stroke:#A80036;stroke-width:1.0;" x1="335.5" x2="377.5" y1="147.3125" y2="147.3125"/><line style="stroke:#A80036;stroke-width:1.0;" x1="377.5" x2="377.5" y1="147.3125" y2="160.3125"/><line style="stroke:#A80036;stroke-width:1.0;" x1="336.5" x2="377.5" y1="160.3125" y2="160.3125"/><polygon fill="#A80036" points="346.5,156.3125,336.5,160.3125,346.5,164.3125,342.5,160.3125" style="stroke:#A80036;stroke-width:1.0;"/><text fill="#000000" font-family="sans-serif" font-size="13" lengthAdjust="spacing" textLength="230" x="342.5" y="142.4561">khởi tạo trận đấu và cache lại trên RAM</text><line style="stroke:#A80036;stroke-width:1.0;" x1="335.5" x2="377.5" y1="190.6641" y2="190.6641"/><line style="stroke:#A80036;stroke-width:1.0;" x1="377.5" x2="377.5" y1="190.6641" y2="203.6641"/><line style="stroke:#A80036;stroke-width:1.0;" x1="336.5" x2="377.5" y1="203.6641" y2="203.6641"/><polygon fill="#A80036" points="346.5,199.6641,336.5,203.6641,346.5,207.6641,342.5,203.6641" style="stroke:#A80036;stroke-width:1.0;"/><text fill="#000000" font-family="sans-serif" font-size="13" lengthAdjust="spacing" textLength="102" x="342.5" y="185.8076">khởi tạo các map</text><line style="stroke:#A80036;stroke-width:1.0;" x1="335.5" x2="377.5" y1="234.0156" y2="234.0156"/><line style="stroke:#A80036;stroke-width:1.0;" x1="377.5" x2="377.5" y1="234.0156" y2="247.0156"/><line style="stroke:#A80036;stroke-width:1.0;" x1="336.5" x2="377.5" y1="247.0156" y2="247.0156"/><polygon fill="#A80036" points="346.5,243.0156,336.5,247.0156,346.5,251.0156,342.5,247.0156" style="stroke:#A80036;stroke-width:1.0;"/><text fill="#000000" font-family="sans-serif" font-size="13" lengthAdjust="spacing" textLength="118" x="342.5" y="229.1592">khởi tạo GameState</text><line style="stroke:#A80036;stroke-width:1.0;" x1="335.5" x2="377.5" y1="277.3672" y2="277.3672"/><line style="stroke:#A80036;stroke-width:1.0;" x1="377.5" x2="377.5" y1="277.3672" y2="290.3672"/><line style="stroke:#A80036;stroke-width:1.0;" x1="336.5" x2="377.5" y1="290.3672" y2="290.3672"/><polygon fill="#A80036" points="346.5,286.3672,336.5,290.3672,346.5,294.3672,342.5,290.3672" style="stroke:#A80036;stroke-width:1.0;"/><text fill="#000000" font-family="sans-serif" font-size="13" lengthAdjust="spacing" textLength="178" x="342.5" y="272.5107">lấy thông tin từ hai người chơi</text><polygon fill="#A80036" points="56.5,316.7188,46.5,320.7188,56.5,324.7188,52.5,320.7188" style="stroke:#A80036;stroke-width:1.0;"/><line style="stroke:#A80036;stroke-width:1.0;" x1="50.5" x2="324.5" y1="320.7188" y2="320.7188"/><text fill="#000000" font-family="sans-serif" font-size="13" lengthAdjust="spacing" textLength="256" x="62.5" y="315.8623">bắt đầu game vói GameState và hai UserInfo</text><polygon fill="#A80036" points="605.5,347.0703,615.5,351.0703,605.5,355.0703,609.5,351.0703" style="stroke:#A80036;stroke-width:1.0;"/><line style="stroke:#A80036;stroke-width:1.0;" x1="330.5" x2="611.5" y1="351.0703" y2="351.0703"/><text fill="#000000" font-family="sans-serif" font-size="13" lengthAdjust="spacing" textLength="258" x="337.5" y="346.2139">bắt đầu game với GameState và hai UserInfo</text><!--MD5=[b0bc6de092a8d5f63d197191a14e828b]
@startuml

actor       ClientA          as ClientA
control     BattleHandle    as Server
actor       ClientB          as ClientB

group Khởi tạo game đấu
    activate Server
    Server -> Server : khởi tạo trận đấu và cache lại trên RAM
    Server -> Server : khởi tạo các map
    Server -> Server : khởi tạo GameState
    Server -> Server : lấy thông tin từ hai người chơi
    Server -> ClientA : bắt đầu game vói GameState và hai UserInfo
    Server -> ClientB : bắt đầu game với GameState và hai UserInfo
    deactivate Server
end

@enduml

PlantUML version 1.2022.0(Tue Jan 11 08:16:42 PST 2022)
(GPL source distribution)
Java Runtime: OpenJDK Runtime Environment
JVM: OpenJDK 64-Bit Server VM
Default Encoding: Cp1252
Language: en
Country: US
--></g></svg>