<?xml version="1.0" encoding="UTF-8" standalone="no"?><svg xmlns="http://www.w3.org/2000/svg" xmlns:xlink="http://www.w3.org/1999/xlink" contentScriptType="application/ecmascript" contentStyleType="text/css" height="497px" preserveAspectRatio="none" style="width:750px;height:497px;background:#FFFFFF;" version="1.1" viewBox="0 0 750 497" width="750px" zoomAndPan="magnify"><defs><filter height="300%" id="f1m51tsdueb1jv" width="300%" x="-1" y="-1"><feGaussianBlur result="blurOut" stdDeviation="2.0"/><feColorMatrix in="blurOut" result="blurOut2" type="matrix" values="0 0 0 0 0 0 0 0 0 0 0 0 0 0 0 0 0 0 .4 0"/><feOffset dx="4.0" dy="4.0" in="blurOut2" result="blurOut3"/><feBlend in="SourceGraphic" in2="blurOut3" mode="normal"/></filter></defs><g><!--MD5=[5b06f678569b5d5d3e5a115ee69cc81e]
class map--><rect codeLine="7" fill="#FEFECE" filter="url(#f1m51tsdueb1jv)" height="89.8359" id="map" style="stroke:#A80036;stroke-width:1.5;" width="208" x="14" y="90.5"/><ellipse cx="100.25" cy="106.5" fill="#ADD1B2" rx="11" ry="11" style="stroke:#A80036;stroke-width:1.0;"/><path d="M103.0156,102.375 Q103.1719,102.1563 103.3594,102.0469 Q103.5469,101.9375 103.7656,101.9375 Q104.1406,101.9375 104.375,102.2031 Q104.6094,102.4531 104.6094,103.0625 L104.6094,104.5156 Q104.6094,105.125 104.375,105.3906 Q104.1406,105.6563 103.7656,105.6563 Q103.4219,105.6563 103.2188,105.4531 Q103.0156,105.2656 102.9063,104.75 Q102.8594,104.3906 102.6719,104.2031 Q102.3438,103.8281 101.7344,103.6094 Q101.125,103.3906 100.5,103.3906 Q99.7344,103.3906 99.0938,103.7188 Q98.4688,104.0469 97.9688,104.7969 Q97.4844,105.5469 97.4844,106.5781 L97.4844,107.6719 Q97.4844,108.9063 98.375,109.7344 Q99.2656,110.5469 100.8594,110.5469 Q101.7969,110.5469 102.4531,110.2969 Q102.8438,110.1406 103.2656,109.7031 Q103.5313,109.4375 103.6719,109.3594 Q103.8281,109.2813 104.0313,109.2813 Q104.3594,109.2813 104.6094,109.5469 Q104.875,109.7969 104.875,110.1406 Q104.875,110.4844 104.5313,110.8906 Q104.0313,111.4688 103.2344,111.7969 Q102.1563,112.25 100.8594,112.25 Q99.3438,112.25 98.1406,111.625 Q97.1563,111.125 96.4688,110.0625 Q95.7813,108.9844 95.7813,107.7031 L95.7813,106.5469 Q95.7813,105.2188 96.3906,104.0781 Q97.0156,102.9219 98.1094,102.3125 Q99.2031,101.6875 100.4375,101.6875 Q101.1719,101.6875 101.8125,101.8594 Q102.4688,102.0156 103.0156,102.375 Z " fill="#000000"/><text fill="#000000" font-family="cascadia code" font-size="16" lengthAdjust="spacing" textLength="27" x="120.75" y="112.0469">map</text><line style="stroke:#A80036;stroke-width:1.5;" x1="15" x2="221" y1="122.5" y2="122.5"/><ellipse cx="25" cy="133.5" rx="3" ry="3" style="stroke:#038048;stroke-width:1.0;fill:none;"/><text fill="#000000" font-family="cascadia code" font-size="12" lengthAdjust="spacing" textLength="126" x="34" y="137.6328">thực hiện sinh map</text><ellipse cx="25" cy="147.4453" rx="3" ry="3" style="stroke:#038048;stroke-width:1.0;fill:none;"/><text fill="#000000" font-family="cascadia code" font-size="12" lengthAdjust="spacing" textLength="175" x="34" y="151.5781">thực hiện tìm đường đi có</text><text fill="#000000" font-family="cascadia code" font-size="12" lengthAdjust="spacing" textLength="126" x="34" y="165.5234">trong map hiện tại</text><line style="stroke:#A80036;stroke-width:1.5;" x1="15" x2="221" y1="172.3359" y2="172.3359"/><!--MD5=[36412ae6d162c6f0292d86efadd70d33]
class monster--><rect codeLine="12" fill="#FEFECE" filter="url(#f1m51tsdueb1jv)" height="215.3438" id="monster" style="stroke:#A80036;stroke-width:1.5;" width="222" x="257" y="28"/><ellipse cx="332.25" cy="44" fill="#ADD1B2" rx="11" ry="11" style="stroke:#A80036;stroke-width:1.0;"/><path d="M335.0156,39.875 Q335.1719,39.6563 335.3594,39.5469 Q335.5469,39.4375 335.7656,39.4375 Q336.1406,39.4375 336.375,39.7031 Q336.6094,39.9531 336.6094,40.5625 L336.6094,42.0156 Q336.6094,42.625 336.375,42.8906 Q336.1406,43.1563 335.7656,43.1563 Q335.4219,43.1563 335.2188,42.9531 Q335.0156,42.7656 334.9063,42.25 Q334.8594,41.8906 334.6719,41.7031 Q334.3438,41.3281 333.7344,41.1094 Q333.125,40.8906 332.5,40.8906 Q331.7344,40.8906 331.0938,41.2188 Q330.4688,41.5469 329.9688,42.2969 Q329.4844,43.0469 329.4844,44.0781 L329.4844,45.1719 Q329.4844,46.4063 330.375,47.2344 Q331.2656,48.0469 332.8594,48.0469 Q333.7969,48.0469 334.4531,47.7969 Q334.8438,47.6406 335.2656,47.2031 Q335.5313,46.9375 335.6719,46.8594 Q335.8281,46.7813 336.0313,46.7813 Q336.3594,46.7813 336.6094,47.0469 Q336.875,47.2969 336.875,47.6406 Q336.875,47.9844 336.5313,48.3906 Q336.0313,48.9688 335.2344,49.2969 Q334.1563,49.75 332.8594,49.75 Q331.3438,49.75 330.1406,49.125 Q329.1563,48.625 328.4688,47.5625 Q327.7813,46.4844 327.7813,45.2031 L327.7813,44.0469 Q327.7813,42.7188 328.3906,41.5781 Q329.0156,40.4219 330.1094,39.8125 Q331.2031,39.1875 332.4375,39.1875 Q333.1719,39.1875 333.8125,39.3594 Q334.4688,39.5156 335.0156,39.875 Z " fill="#000000"/><text fill="#000000" font-family="cascadia code" font-size="16" lengthAdjust="spacing" textLength="63" x="352.75" y="49.5469">monster</text><line style="stroke:#A80036;stroke-width:1.5;" x1="258" x2="478" y1="60" y2="60"/><ellipse cx="268" cy="71" rx="3" ry="3" style="stroke:#038048;stroke-width:1.0;fill:none;"/><text fill="#000000" font-family="cascadia code" font-size="12" lengthAdjust="spacing" textLength="126" x="277" y="75.1328">có tới 5 loại quái</text><ellipse cx="268" cy="84.9453" rx="3" ry="3" style="stroke:#038048;stroke-width:1.0;fill:none;"/><text fill="#000000" font-family="cascadia code" font-size="12" lengthAdjust="spacing" textLength="196" x="277" y="89.0781">các chỉ số sinh lực, sức sát</text><text fill="#000000" font-family="cascadia code" font-size="12" lengthAdjust="spacing" textLength="189" x="277" y="103.0234">thương, có thể chọn làm mục</text><text fill="#000000" font-family="cascadia code" font-size="12" lengthAdjust="spacing" textLength="175" x="277" y="116.9688">tiêu không, số lượng năng</text><text fill="#000000" font-family="cascadia code" font-size="12" lengthAdjust="spacing" textLength="77" x="277" y="130.9141">lượng riêng</text><ellipse cx="268" cy="140.7266" rx="3" ry="3" style="stroke:#038048;stroke-width:1.0;fill:none;"/><text fill="#000000" font-family="cascadia code" font-size="12" lengthAdjust="spacing" textLength="84" x="277" y="144.8594">có thanh máu</text><ellipse cx="268" cy="154.6719" rx="3" ry="3" style="stroke:#038048;stroke-width:1.0;fill:none;"/><text fill="#000000" font-family="cascadia code" font-size="12" lengthAdjust="spacing" textLength="196" x="277" y="158.8047">có quái có những bước đi đặc</text><text fill="#000000" font-family="cascadia code" font-size="12" lengthAdjust="spacing" textLength="28" x="277" y="172.75">biệt</text><ellipse cx="268" cy="182.5625" rx="3" ry="3" style="stroke:#038048;stroke-width:1.0;fill:none;"/><text fill="#000000" font-family="cascadia code" font-size="12" lengthAdjust="spacing" textLength="189" x="277" y="186.6953">quái được đối phương thả sẽ</text><text fill="#000000" font-family="cascadia code" font-size="12" lengthAdjust="spacing" textLength="168" x="277" y="200.6406">có vòng tròn màu đỏ dưới</text><text fill="#000000" font-family="cascadia code" font-size="12" lengthAdjust="spacing" textLength="175" x="277" y="214.5859">chân, quái mình thả sẽ có</text><text fill="#000000" font-family="cascadia code" font-size="12" lengthAdjust="spacing" textLength="126" x="277" y="228.5313">màu xanh dưới chân</text><line style="stroke:#A80036;stroke-width:1.5;" x1="258" x2="478" y1="235.3438" y2="235.3438"/><!--MD5=[5956e21670a10e2f5834a0c647fba738]
class tower--><rect codeLine="20" fill="#FEFECE" filter="url(#f1m51tsdueb1jv)" height="257.1797" id="tower" style="stroke:#A80036;stroke-width:1.5;" width="222" x="514" y="7"/><ellipse cx="598.25" cy="23" fill="#ADD1B2" rx="11" ry="11" style="stroke:#A80036;stroke-width:1.0;"/><path d="M601.0156,18.875 Q601.1719,18.6563 601.3594,18.5469 Q601.5469,18.4375 601.7656,18.4375 Q602.1406,18.4375 602.375,18.7031 Q602.6094,18.9531 602.6094,19.5625 L602.6094,21.0156 Q602.6094,21.625 602.375,21.8906 Q602.1406,22.1563 601.7656,22.1563 Q601.4219,22.1563 601.2188,21.9531 Q601.0156,21.7656 600.9063,21.25 Q600.8594,20.8906 600.6719,20.7031 Q600.3438,20.3281 599.7344,20.1094 Q599.125,19.8906 598.5,19.8906 Q597.7344,19.8906 597.0938,20.2188 Q596.4688,20.5469 595.9688,21.2969 Q595.4844,22.0469 595.4844,23.0781 L595.4844,24.1719 Q595.4844,25.4063 596.375,26.2344 Q597.2656,27.0469 598.8594,27.0469 Q599.7969,27.0469 600.4531,26.7969 Q600.8438,26.6406 601.2656,26.2031 Q601.5313,25.9375 601.6719,25.8594 Q601.8281,25.7813 602.0313,25.7813 Q602.3594,25.7813 602.6094,26.0469 Q602.875,26.2969 602.875,26.6406 Q602.875,26.9844 602.5313,27.3906 Q602.0313,27.9688 601.2344,28.2969 Q600.1563,28.75 598.8594,28.75 Q597.3438,28.75 596.1406,28.125 Q595.1563,27.625 594.4688,26.5625 Q593.7813,25.4844 593.7813,24.2031 L593.7813,23.0469 Q593.7813,21.7188 594.3906,20.5781 Q595.0156,19.4219 596.1094,18.8125 Q597.2031,18.1875 598.4375,18.1875 Q599.1719,18.1875 599.8125,18.3594 Q600.4688,18.5156 601.0156,18.875 Z " fill="#000000"/><text fill="#000000" font-family="cascadia code" font-size="16" lengthAdjust="spacing" textLength="45" x="618.75" y="28.5469">tower</text><line style="stroke:#A80036;stroke-width:1.5;" x1="515" x2="735" y1="39" y2="39"/><ellipse cx="525" cy="50" rx="3" ry="3" style="stroke:#038048;stroke-width:1.0;fill:none;"/><text fill="#000000" font-family="cascadia code" font-size="12" lengthAdjust="spacing" textLength="175" x="534" y="54.1328">năng lượng sử dụng để đặt</text><text fill="#000000" font-family="cascadia code" font-size="12" lengthAdjust="spacing" textLength="63" x="534" y="68.0781">khác nhau</text><ellipse cx="525" cy="77.8906" rx="3" ry="3" style="stroke:#038048;stroke-width:1.0;fill:none;"/><text fill="#000000" font-family="cascadia code" font-size="12" lengthAdjust="spacing" textLength="175" x="534" y="82.0234">tháp có khả năng tiến hóa</text><text fill="#000000" font-family="cascadia code" font-size="12" lengthAdjust="spacing" textLength="28" x="534" y="95.9688">được</text><ellipse cx="525" cy="105.7813" rx="3" ry="3" style="stroke:#038048;stroke-width:1.0;fill:none;"/><text fill="#000000" font-family="cascadia code" font-size="12" lengthAdjust="spacing" textLength="168" x="534" y="109.9141">hệ thống có nhiều các ưu</text><text fill="#000000" font-family="cascadia code" font-size="12" lengthAdjust="spacing" textLength="154" x="534" y="123.8594">tiên cho quái lựa chọn</text><ellipse cx="525" cy="133.6719" rx="3" ry="3" style="stroke:#038048;stroke-width:1.0;fill:none;"/><text fill="#000000" font-family="cascadia code" font-size="12" lengthAdjust="spacing" textLength="175" x="534" y="137.8047">hệ thống đạn bắn - 2 loại</text><ellipse cx="525" cy="147.6172" rx="3" ry="3" style="stroke:#038048;stroke-width:1.0;fill:none;"/><text fill="#000000" font-family="cascadia code" font-size="12" lengthAdjust="spacing" textLength="189" x="534" y="151.75">7 loại trụ, mỗi loại trụ có</text><text fill="#000000" font-family="cascadia code" font-size="12" lengthAdjust="spacing" textLength="154" x="534" y="165.6953">các loại đạn khác nhau</text><ellipse cx="525" cy="175.5078" rx="3" ry="3" style="stroke:#038048;stroke-width:1.0;fill:none;"/><text fill="#000000" font-family="cascadia code" font-size="12" lengthAdjust="spacing" textLength="189" x="534" y="179.6406">loại đạn có thể là tầm rộng</text><text fill="#000000" font-family="cascadia code" font-size="12" lengthAdjust="spacing" textLength="168" x="534" y="193.5859">hoặc là một mục tiêu duy</text><text fill="#000000" font-family="cascadia code" font-size="12" lengthAdjust="spacing" textLength="28" x="534" y="207.5313">nhất</text><ellipse cx="525" cy="217.3438" rx="3" ry="3" style="stroke:#038048;stroke-width:1.0;fill:none;"/><text fill="#000000" font-family="cascadia code" font-size="12" lengthAdjust="spacing" textLength="182" x="534" y="221.4766">có thể có trụ không bắn ra</text><text fill="#000000" font-family="cascadia code" font-size="12" lengthAdjust="spacing" textLength="112" x="534" y="235.4219">đạn - trụ hỗ trợ</text><ellipse cx="525" cy="245.2344" rx="3" ry="3" style="stroke:#038048;stroke-width:1.0;fill:none;"/><text fill="#000000" font-family="cascadia code" font-size="12" lengthAdjust="spacing" textLength="161" x="534" y="249.3672">có thể hủy tháp đã chọn</text><line style="stroke:#A80036;stroke-width:1.5;" x1="515" x2="735" y1="256.1797" y2="256.1797"/><!--MD5=[b241eed1fcb99c95939a854975bc9aa8]
class bullet--><rect codeLine="31" fill="#FEFECE" filter="url(#f1m51tsdueb1jv)" height="159.5625" id="bullet" style="stroke:#A80036;stroke-width:1.5;" width="222" x="7" y="324"/><ellipse cx="86.75" cy="340" fill="#ADD1B2" rx="11" ry="11" style="stroke:#A80036;stroke-width:1.0;"/><path d="M89.5156,335.875 Q89.6719,335.6563 89.8594,335.5469 Q90.0469,335.4375 90.2656,335.4375 Q90.6406,335.4375 90.875,335.7031 Q91.1094,335.9531 91.1094,336.5625 L91.1094,338.0156 Q91.1094,338.625 90.875,338.8906 Q90.6406,339.1563 90.2656,339.1563 Q89.9219,339.1563 89.7188,338.9531 Q89.5156,338.7656 89.4063,338.25 Q89.3594,337.8906 89.1719,337.7031 Q88.8438,337.3281 88.2344,337.1094 Q87.625,336.8906 87,336.8906 Q86.2344,336.8906 85.5938,337.2188 Q84.9688,337.5469 84.4688,338.2969 Q83.9844,339.0469 83.9844,340.0781 L83.9844,341.1719 Q83.9844,342.4063 84.875,343.2344 Q85.7656,344.0469 87.3594,344.0469 Q88.2969,344.0469 88.9531,343.7969 Q89.3438,343.6406 89.7656,343.2031 Q90.0313,342.9375 90.1719,342.8594 Q90.3281,342.7813 90.5313,342.7813 Q90.8594,342.7813 91.1094,343.0469 Q91.375,343.2969 91.375,343.6406 Q91.375,343.9844 91.0313,344.3906 Q90.5313,344.9688 89.7344,345.2969 Q88.6563,345.75 87.3594,345.75 Q85.8438,345.75 84.6406,345.125 Q83.6563,344.625 82.9688,343.5625 Q82.2813,342.4844 82.2813,341.2031 L82.2813,340.0469 Q82.2813,338.7188 82.8906,337.5781 Q83.5156,336.4219 84.6094,335.8125 Q85.7031,335.1875 86.9375,335.1875 Q87.6719,335.1875 88.3125,335.3594 Q88.9688,335.5156 89.5156,335.875 Z " fill="#000000"/><text fill="#000000" font-family="cascadia code" font-size="16" lengthAdjust="spacing" textLength="54" x="107.25" y="345.5469">bullet</text><line style="stroke:#A80036;stroke-width:1.5;" x1="8" x2="228" y1="356" y2="356"/><ellipse cx="18" cy="367" rx="3" ry="3" style="stroke:#038048;stroke-width:1.0;fill:none;"/><text fill="#000000" font-family="cascadia code" font-size="12" lengthAdjust="spacing" textLength="189" x="27" y="371.1328">mỗi tòa tháp sẽ có một loại</text><text fill="#000000" font-family="cascadia code" font-size="12" lengthAdjust="spacing" textLength="63" x="27" y="385.0781">đạn riêng</text><ellipse cx="18" cy="394.8906" rx="3" ry="3" style="stroke:#038048;stroke-width:1.0;fill:none;"/><text fill="#000000" font-family="cascadia code" font-size="12" lengthAdjust="spacing" textLength="189" x="27" y="399.0234">mỗi loại đạn sẽ có các hành</text><text fill="#000000" font-family="cascadia code" font-size="12" lengthAdjust="spacing" textLength="196" x="27" y="412.9688">vi khách nhau như là nổ lan,</text><text fill="#000000" font-family="cascadia code" font-size="12" lengthAdjust="spacing" textLength="126" x="27" y="426.9141">gây đống băng, ...</text><ellipse cx="18" cy="436.7266" rx="3" ry="3" style="stroke:#038048;stroke-width:1.0;fill:none;"/><text fill="#000000" font-family="cascadia code" font-size="12" lengthAdjust="spacing" textLength="189" x="27" y="440.8594">đạn sẽ có các thuộc tính cơ</text><text fill="#000000" font-family="cascadia code" font-size="12" lengthAdjust="spacing" textLength="196" x="27" y="454.8047">bản như là tốc độ bay, chuỗi</text><text fill="#000000" font-family="cascadia code" font-size="12" lengthAdjust="spacing" textLength="196" x="27" y="468.75">animation, và sức sát thương</text><line style="stroke:#A80036;stroke-width:1.5;" x1="8" x2="228" y1="475.5625" y2="475.5625"/><!--MD5=[a989f42f038458dcc194e2103eb1883b]
class maplayer--><rect codeLine="37" fill="#FEFECE" filter="url(#f1m51tsdueb1jv)" height="117.7266" id="maplayer" style="stroke:#A80036;stroke-width:1.5;" width="222" x="264" y="345"/><ellipse cx="334.75" cy="361" fill="#ADD1B2" rx="11" ry="11" style="stroke:#A80036;stroke-width:1.0;"/><path d="M337.5156,356.875 Q337.6719,356.6563 337.8594,356.5469 Q338.0469,356.4375 338.2656,356.4375 Q338.6406,356.4375 338.875,356.7031 Q339.1094,356.9531 339.1094,357.5625 L339.1094,359.0156 Q339.1094,359.625 338.875,359.8906 Q338.6406,360.1563 338.2656,360.1563 Q337.9219,360.1563 337.7188,359.9531 Q337.5156,359.7656 337.4063,359.25 Q337.3594,358.8906 337.1719,358.7031 Q336.8438,358.3281 336.2344,358.1094 Q335.625,357.8906 335,357.8906 Q334.2344,357.8906 333.5938,358.2188 Q332.9688,358.5469 332.4688,359.2969 Q331.9844,360.0469 331.9844,361.0781 L331.9844,362.1719 Q331.9844,363.4063 332.875,364.2344 Q333.7656,365.0469 335.3594,365.0469 Q336.2969,365.0469 336.9531,364.7969 Q337.3438,364.6406 337.7656,364.2031 Q338.0313,363.9375 338.1719,363.8594 Q338.3281,363.7813 338.5313,363.7813 Q338.8594,363.7813 339.1094,364.0469 Q339.375,364.2969 339.375,364.6406 Q339.375,364.9844 339.0313,365.3906 Q338.5313,365.9688 337.7344,366.2969 Q336.6563,366.75 335.3594,366.75 Q333.8438,366.75 332.6406,366.125 Q331.6563,365.625 330.9688,364.5625 Q330.2813,363.4844 330.2813,362.2031 L330.2813,361.0469 Q330.2813,359.7188 330.8906,358.5781 Q331.5156,357.4219 332.6094,356.8125 Q333.7031,356.1875 334.9375,356.1875 Q335.6719,356.1875 336.3125,356.3594 Q336.9688,356.5156 337.5156,356.875 Z " fill="#000000"/><text fill="#000000" font-family="cascadia code" font-size="16" lengthAdjust="spacing" textLength="72" x="355.25" y="366.5469">maplayer</text><line style="stroke:#A80036;stroke-width:1.5;" x1="265" x2="485" y1="377" y2="377"/><ellipse cx="275" cy="388" rx="3" ry="3" style="stroke:#038048;stroke-width:1.0;fill:none;"/><text fill="#000000" font-family="cascadia code" font-size="12" lengthAdjust="spacing" textLength="196" x="284" y="392.1328">chuyển hóa map thành sprite,</text><text fill="#000000" font-family="cascadia code" font-size="12" lengthAdjust="spacing" textLength="154" x="284" y="406.0781">thực hiện việc quản lý</text><text fill="#000000" font-family="cascadia code" font-size="12" lengthAdjust="spacing" textLength="42" x="284" y="420.0234">sprite</text><ellipse cx="275" cy="429.8359" rx="3" ry="3" style="stroke:#038048;stroke-width:1.0;fill:none;"/><text fill="#000000" font-family="cascadia code" font-size="12" lengthAdjust="spacing" textLength="182" x="284" y="433.9688">thực hiện các cập nhật khi</text><text fill="#000000" font-family="cascadia code" font-size="12" lengthAdjust="spacing" textLength="119" x="284" y="447.9141">map được cập nhật</text><line style="stroke:#A80036;stroke-width:1.5;" x1="265" x2="485" y1="454.7266" y2="454.7266"/><!--MD5=[7d08d358dbadc1649b93391f12a76522]
link map to monster--><!--MD5=[41bedbf799661b50c6971508d1ccacf8]
link monster to tower--><!--MD5=[b4218cbfae4ca572029d50f008306a5c]
link map to bullet--><!--MD5=[790e3122efd3318956f9ff77be3494e7]
link bullet to maplayer--><!--MD5=[85a5ce829ee5d3025da693b4f2518a39]
@startuml
skinparam wrapwidth 200
skinparam classfontname cascadia code
skinparam classfontsize 16
skinparam classattributefontname cascadia code
skinparam classattributefontsize 12

class map {
    + thực hiện sinh map
    + thực hiện tìm đường đi có trong map hiện tại
}

class monster{
    + có tới 5 loại quái
    + các chỉ số sinh lực, sức sát thương, có thể chọn làm mục tiêu không, số lượng năng lượng riêng
    + có thanh máu
    + có quái có những bước đi đặc biệt
    + quái được đối phương thả sẽ có vòng tròn màu đỏ dưới chân, quái mình thả sẽ có màu xanh dưới chân
}

class tower{
    + năng lượng sử dụng để đặt khác nhau
    + tháp có khả năng tiến hóa được
    + hệ thống có nhiều các ưu tiên cho quái lựa chọn
    + hệ thống đạn bắn - 2 loại
    + 7 loại trụ, mỗi loại trụ có các loại đạn khác nhau
    + loại đạn có thể là tầm rộng hoặc là một mục tiêu duy nhất
    + có thể có trụ không bắn ra đạn - trụ hỗ trợ
    + có thể hủy tháp đã chọn
}

class bullet {
    + mỗi tòa tháp sẽ có một loại đạn riêng
    + mỗi loại đạn sẽ có các hành vi khách nhau như là nổ lan, gây đống băng, ...
    + đạn sẽ có các thuộc tính cơ bản như là tốc độ bay, chuỗi animation, và sức sát thương
}

class maplayer {
    + chuyển hóa map thành sprite, thực hiện việc quản lý sprite
    + thực hiện các cập nhật khi map được cập nhật
}


@enduml

PlantUML version 1.2022.0(Tue Jan 11 08:16:42 PST 2022)
(GPL source distribution)
Java Runtime: OpenJDK Runtime Environment
JVM: OpenJDK 64-Bit Server VM
Default Encoding: Cp1252
Language: en
Country: US
--></g></svg>