<?xml version="1.0" encoding="UTF-8" standalone="no"?><svg xmlns="http://www.w3.org/2000/svg" xmlns:xlink="http://www.w3.org/1999/xlink" contentScriptType="application/ecmascript" contentStyleType="text/css" height="447px" preserveAspectRatio="none" style="width:694px;height:447px;background:#FFFFFF;" version="1.1" viewBox="0 0 694 447" width="694px" zoomAndPan="magnify"><defs><filter height="300%" id="f1cvd1x19m30jb" width="300%" x="-1" y="-1"><feGaussianBlur result="blurOut" stdDeviation="2.0"/><feColorMatrix in="blurOut" result="blurOut2" type="matrix" values="0 0 0 0 0 0 0 0 0 0 0 0 0 0 0 0 0 0 .4 0"/><feOffset dx="4.0" dy="4.0" in="blurOut2" result="blurOut3"/><feBlend in="SourceGraphic" in2="blurOut3" mode="normal"/></filter></defs><g><rect fill="#FFFFFF" filter="url(#f1cvd1x19m30jb)" height="226.4609" style="stroke:#000000;stroke-width:2.0;" width="438" x="242.5" y="145.3125"/><line style="stroke:#A80036;stroke-width:1.0;stroke-dasharray:5.0,5.0;" x1="29" x2="29" y1="54.6094" y2="388.7734"/><line style="stroke:#A80036;stroke-width:1.0;stroke-dasharray:5.0,5.0;" x1="115" x2="115" y1="54.6094" y2="388.7734"/><line style="stroke:#A80036;stroke-width:1.0;stroke-dasharray:5.0,5.0;" x1="319.5" x2="319.5" y1="54.6094" y2="388.7734"/><line style="stroke:#A80036;stroke-width:1.0;stroke-dasharray:5.0,5.0;" x1="504.5" x2="504.5" y1="54.6094" y2="388.7734"/><line style="stroke:#A80036;stroke-width:1.0;stroke-dasharray:5.0,5.0;" x1="635.5" x2="635.5" y1="54.6094" y2="388.7734"/><text fill="#000000" font-family="sans-serif" font-size="14" lengthAdjust="spacing" textLength="42" x="5" y="51.5332">Server</text><ellipse cx="29" cy="21" fill="#FEFECE" filter="url(#f1cvd1x19m30jb)" rx="12" ry="12" style="stroke:#A80036;stroke-width:2.0;"/><polygon fill="#A80036" points="25,9,31,4,29,9,31,14,25,9" style="stroke:#A80036;stroke-width:1.0;"/><text fill="#000000" font-family="sans-serif" font-size="14" lengthAdjust="spacing" textLength="42" x="5" y="402.3066">Server</text><ellipse cx="29" cy="421.3828" fill="#FEFECE" filter="url(#f1cvd1x19m30jb)" rx="12" ry="12" style="stroke:#A80036;stroke-width:2.0;"/><polygon fill="#A80036" points="25,409.3828,31,404.3828,29,409.3828,31,414.3828,25,409.3828" style="stroke:#A80036;stroke-width:1.0;"/><text fill="#000000" font-family="sans-serif" font-size="14" lengthAdjust="spacing" textLength="98" x="63" y="51.5332">BattleController</text><ellipse cx="115" cy="21" fill="#FEFECE" filter="url(#f1cvd1x19m30jb)" rx="12" ry="12" style="stroke:#A80036;stroke-width:2.0;"/><polygon fill="#A80036" points="111,9,117,4,115,9,117,14,111,9" style="stroke:#A80036;stroke-width:1.0;"/><text fill="#000000" font-family="sans-serif" font-size="14" lengthAdjust="spacing" textLength="98" x="63" y="402.3066">BattleController</text><ellipse cx="115" cy="421.3828" fill="#FEFECE" filter="url(#f1cvd1x19m30jb)" rx="12" ry="12" style="stroke:#A80036;stroke-width:2.0;"/><polygon fill="#A80036" points="111,409.3828,117,404.3828,115,409.3828,117,414.3828,111,409.3828" style="stroke:#A80036;stroke-width:1.0;"/><text fill="#000000" font-family="sans-serif" font-size="14" lengthAdjust="spacing" textLength="129" x="252.5" y="51.5332">MonsterSpawnLayer</text><path d="M299.5,9 L299.5,33 M299.5,21 L316.5,21 " fill="none" filter="url(#f1cvd1x19m30jb)" style="stroke:#A80036;stroke-width:2.0;"/><ellipse cx="328.5" cy="21" fill="#FEFECE" filter="url(#f1cvd1x19m30jb)" rx="12" ry="12" style="stroke:#A80036;stroke-width:2.0;"/><text fill="#000000" font-family="sans-serif" font-size="14" lengthAdjust="spacing" textLength="129" x="252.5" y="402.3066">MonsterSpawnLayer</text><path d="M299.5,409.3828 L299.5,433.3828 M299.5,421.3828 L316.5,421.3828 " fill="none" filter="url(#f1cvd1x19m30jb)" style="stroke:#A80036;stroke-width:2.0;"/><ellipse cx="328.5" cy="421.3828" fill="#FEFECE" filter="url(#f1cvd1x19m30jb)" rx="12" ry="12" style="stroke:#A80036;stroke-width:2.0;"/><text fill="#000000" font-family="sans-serif" font-size="14" lengthAdjust="spacing" textLength="79" x="462.5" y="51.5332">MonsterPool</text><ellipse cx="505" cy="21" fill="#FEFECE" filter="url(#f1cvd1x19m30jb)" rx="12" ry="12" style="stroke:#A80036;stroke-width:2.0;"/><line style="stroke:#A80036;stroke-width:2.0;" x1="493" x2="517" y1="35" y2="35"/><text fill="#000000" font-family="sans-serif" font-size="14" lengthAdjust="spacing" textLength="79" x="462.5" y="402.3066">MonsterPool</text><ellipse cx="505" cy="421.3828" fill="#FEFECE" filter="url(#f1cvd1x19m30jb)" rx="12" ry="12" style="stroke:#A80036;stroke-width:2.0;"/><line style="stroke:#A80036;stroke-width:2.0;" x1="493" x2="517" y1="435.3828" y2="435.3828"/><text fill="#000000" font-family="sans-serif" font-size="14" lengthAdjust="spacing" textLength="63" x="601.5" y="51.5332">MapLayer</text><path d="M615.5,9 L615.5,33 M615.5,21 L632.5,21 " fill="none" filter="url(#f1cvd1x19m30jb)" style="stroke:#A80036;stroke-width:2.0;"/><ellipse cx="644.5" cy="21" fill="#FEFECE" filter="url(#f1cvd1x19m30jb)" rx="12" ry="12" style="stroke:#A80036;stroke-width:2.0;"/><text fill="#000000" font-family="sans-serif" font-size="14" lengthAdjust="spacing" textLength="63" x="601.5" y="402.3066">MapLayer</text><path d="M615.5,409.3828 L615.5,433.3828 M615.5,421.3828 L632.5,421.3828 " fill="none" filter="url(#f1cvd1x19m30jb)" style="stroke:#A80036;stroke-width:2.0;"/><ellipse cx="644.5" cy="421.3828" fill="#FEFECE" filter="url(#f1cvd1x19m30jb)" rx="12" ry="12" style="stroke:#A80036;stroke-width:2.0;"/><line style="stroke:#A80036;stroke-width:1.0;" x1="115" x2="157" y1="86.9609" y2="86.9609"/><line style="stroke:#A80036;stroke-width:1.0;" x1="157" x2="157" y1="86.9609" y2="99.9609"/><line style="stroke:#A80036;stroke-width:1.0;" x1="116" x2="157" y1="99.9609" y2="99.9609"/><polygon fill="#A80036" points="126,95.9609,116,99.9609,126,103.9609,122,99.9609" style="stroke:#A80036;stroke-width:1.0;"/><text fill="#000000" font-family="sans-serif" font-size="13" lengthAdjust="spacing" textLength="90" x="122" y="82.1045">runNextRound()</text><polygon fill="#A80036" points="308,126.3125,318,130.3125,308,134.3125,312,130.3125" style="stroke:#A80036;stroke-width:1.0;"/><line style="stroke:#A80036;stroke-width:1.0;" x1="115" x2="314" y1="130.3125" y2="130.3125"/><text fill="#000000" font-family="sans-serif" font-size="13" lengthAdjust="spacing" textLength="181" x="122" y="125.4561">generateLevel(LevelDescription)</text><path d="M242.5,145.3125 L319.5,145.3125 L319.5,153.3125 L309.5,163.3125 L242.5,163.3125 L242.5,145.3125 " fill="#EEEEEE" style="stroke:#000000;stroke-width:1.0;"/><rect fill="none" height="226.4609" style="stroke:#000000;stroke-width:2.0;" width="438" x="242.5" y="145.3125"/><text fill="#000000" font-family="sans-serif" font-size="13" font-weight="bold" lengthAdjust="spacing" textLength="32" x="257.5" y="159.8076">Loop</text><polygon fill="#A80036" points="493,182.0156,503,186.0156,493,190.0156,497,186.0156" style="stroke:#A80036;stroke-width:1.0;"/><line style="stroke:#A80036;stroke-width:1.0;" x1="320" x2="499" y1="186.0156" y2="186.0156"/><text fill="#000000" font-family="sans-serif" font-size="13" lengthAdjust="spacing" textLength="148" x="327" y="181.1592">getMonster(monsterType)</text><line style="stroke:#A80036;stroke-width:1.0;" x1="505" x2="547" y1="216.3672" y2="216.3672"/><line style="stroke:#A80036;stroke-width:1.0;" x1="547" x2="547" y1="216.3672" y2="229.3672"/><line style="stroke:#A80036;stroke-width:1.0;" x1="506" x2="547" y1="229.3672" y2="229.3672"/><polygon fill="#A80036" points="516,225.3672,506,229.3672,516,233.3672,512,229.3672" style="stroke:#A80036;stroke-width:1.0;"/><text fill="#000000" font-family="sans-serif" font-size="13" lengthAdjust="spacing" textLength="117" x="512" y="211.5107">haveMonsterInPool()</text><polygon fill="#A80036" points="331,255.7188,321,259.7188,331,263.7188,327,259.7188" style="stroke:#A80036;stroke-width:1.0;"/><line style="stroke:#A80036;stroke-width:1.0;" x1="325" x2="504" y1="259.7188" y2="259.7188"/><text fill="#000000" font-family="sans-serif" font-size="13" lengthAdjust="spacing" textLength="81" x="337" y="254.8623">MonsterSprite</text><polygon fill="#A80036" points="624,286.0703,634,290.0703,624,294.0703,628,290.0703" style="stroke:#A80036;stroke-width:1.0;"/><line style="stroke:#A80036;stroke-width:1.0;" x1="320" x2="630" y1="290.0703" y2="290.0703"/><text fill="#000000" font-family="sans-serif" font-size="13" lengthAdjust="spacing" textLength="114" x="327" y="285.2139">getPathFromIndex()</text><polygon fill="#A80036" points="331,316.4219,321,320.4219,331,324.4219,327,320.4219" style="stroke:#A80036;stroke-width:1.0;"/><line style="stroke:#A80036;stroke-width:1.0;" x1="325" x2="635" y1="320.4219" y2="320.4219"/><text fill="#000000" font-family="sans-serif" font-size="13" lengthAdjust="spacing" textLength="33" x="337" y="315.5654">path[]</text><line style="stroke:#A80036;stroke-width:1.0;" x1="320" x2="362" y1="350.7734" y2="350.7734"/><line style="stroke:#A80036;stroke-width:1.0;" x1="362" x2="362" y1="350.7734" y2="363.7734"/><line style="stroke:#A80036;stroke-width:1.0;" x1="321" x2="362" y1="363.7734" y2="363.7734"/><polygon fill="#A80036" points="331,359.7734,321,363.7734,331,367.7734,327,363.7734" style="stroke:#A80036;stroke-width:1.0;"/><text fill="#000000" font-family="sans-serif" font-size="13" lengthAdjust="spacing" textLength="171" x="327" y="345.917">update path for MonsterSprite</text><!--MD5=[bc1e2cd45d331384efe200fbf3038470]
@startuml
control Server as Server
control BattleController as BattleController
boundary MonsterSpawnLayer as MonsterSpawnLayer
entity MonsterPool as MonsterPool
boundary MapLayer as MapLayer

BattleController -> BattleController : runNextRound()
BattleController -> MonsterSpawnLayer : generateLevel(LevelDescription)

group Loop
    MonsterSpawnLayer -> MonsterPool : getMonster(monsterType)
    MonsterPool -> MonsterPool : haveMonsterInPool()
    MonsterPool -> MonsterSpawnLayer : MonsterSprite
    MonsterSpawnLayer -> MapLayer : getPathFromIndex()
    MapLayer -> MonsterSpawnLayer : path[]
    MonsterSpawnLayer -> MonsterSpawnLayer : update path for MonsterSprite
end

@enduml

PlantUML version 1.2022.0(Tue Jan 11 08:16:42 PST 2022)
(GPL source distribution)
Java Runtime: OpenJDK Runtime Environment
JVM: OpenJDK 64-Bit Server VM
Default Encoding: Cp1252
Language: en
Country: US
--></g></svg>