<?xml version="1.0" encoding="UTF-8" standalone="no"?><svg xmlns="http://www.w3.org/2000/svg" xmlns:xlink="http://www.w3.org/1999/xlink" contentScriptType="application/ecmascript" contentStyleType="text/css" height="464px" preserveAspectRatio="none" style="width:472px;height:464px;background:#FFFFFF;" version="1.1" viewBox="0 0 472 464" width="472px" zoomAndPan="magnify"><defs><filter height="300%" id="f1fzc7ugsiimat" width="300%" x="-1" y="-1"><feGaussianBlur result="blurOut" stdDeviation="2.0"/><feColorMatrix in="blurOut" result="blurOut2" type="matrix" values="0 0 0 0 0 0 0 0 0 0 0 0 0 0 0 0 0 0 .4 0"/><feOffset dx="4.0" dy="4.0" in="blurOut2" result="blurOut3"/><feBlend in="SourceGraphic" in2="blurOut3" mode="normal"/></filter></defs><g><line style="stroke:#A80036;stroke-width:1.0;stroke-dasharray:5.0,5.0;" x1="28" x2="28" y1="89.6094" y2="378.4219"/><line style="stroke:#A80036;stroke-width:1.0;stroke-dasharray:5.0,5.0;" x1="167" x2="167" y1="89.6094" y2="378.4219"/><line style="stroke:#A80036;stroke-width:1.0;stroke-dasharray:5.0,5.0;" x1="301.5" x2="301.5" y1="89.6094" y2="378.4219"/><line style="stroke:#A80036;stroke-width:1.0;stroke-dasharray:5.0,5.0;" x1="430.5" x2="430.5" y1="89.6094" y2="378.4219"/><text fill="#000000" font-family="sans-serif" font-size="14" lengthAdjust="spacing" textLength="40" x="5" y="86.5332">Player</text><ellipse cx="28" cy="15" fill="#FEFECE" filter="url(#f1fzc7ugsiimat)" rx="8" ry="8" style="stroke:#A80036;stroke-width:2.0;"/><path d="M28,23 L28,50 M15,31 L41,31 M28,50 L15,65 M28,50 L41,65 " fill="none" filter="url(#f1fzc7ugsiimat)" style="stroke:#A80036;stroke-width:2.0;"/><text fill="#000000" font-family="sans-serif" font-size="14" lengthAdjust="spacing" textLength="40" x="5" y="391.9551">Player</text><ellipse cx="28" cy="405.0313" fill="#FEFECE" filter="url(#f1fzc7ugsiimat)" rx="8" ry="8" style="stroke:#A80036;stroke-width:2.0;"/><path d="M28,413.0313 L28,440.0313 M15,421.0313 L41,421.0313 M28,440.0313 L15,455.0313 M28,440.0313 L41,455.0313 " fill="none" filter="url(#f1fzc7ugsiimat)" style="stroke:#A80036;stroke-width:2.0;"/><text fill="#000000" font-family="sans-serif" font-size="14" lengthAdjust="spacing" textLength="48" x="140" y="86.5332">UILayer</text><path d="M146.5,44 L146.5,68 M146.5,56 L163.5,56 " fill="none" filter="url(#f1fzc7ugsiimat)" style="stroke:#A80036;stroke-width:2.0;"/><ellipse cx="175.5" cy="56" fill="#FEFECE" filter="url(#f1fzc7ugsiimat)" rx="12" ry="12" style="stroke:#A80036;stroke-width:2.0;"/><text fill="#000000" font-family="sans-serif" font-size="14" lengthAdjust="spacing" textLength="48" x="140" y="391.9551">UILayer</text><path d="M146.5,399.0313 L146.5,423.0313 M146.5,411.0313 L163.5,411.0313 " fill="none" filter="url(#f1fzc7ugsiimat)" style="stroke:#A80036;stroke-width:2.0;"/><ellipse cx="175.5" cy="411.0313" fill="#FEFECE" filter="url(#f1fzc7ugsiimat)" rx="12" ry="12" style="stroke:#A80036;stroke-width:2.0;"/><text fill="#000000" font-family="sans-serif" font-size="14" lengthAdjust="spacing" textLength="63" x="267.5" y="86.5332">MapLayer</text><path d="M281.5,44 L281.5,68 M281.5,56 L298.5,56 " fill="none" filter="url(#f1fzc7ugsiimat)" style="stroke:#A80036;stroke-width:2.0;"/><ellipse cx="310.5" cy="56" fill="#FEFECE" filter="url(#f1fzc7ugsiimat)" rx="12" ry="12" style="stroke:#A80036;stroke-width:2.0;"/><text fill="#000000" font-family="sans-serif" font-size="14" lengthAdjust="spacing" textLength="63" x="267.5" y="391.9551">MapLayer</text><path d="M281.5,399.0313 L281.5,423.0313 M281.5,411.0313 L298.5,411.0313 " fill="none" filter="url(#f1fzc7ugsiimat)" style="stroke:#A80036;stroke-width:2.0;"/><ellipse cx="310.5" cy="411.0313" fill="#FEFECE" filter="url(#f1fzc7ugsiimat)" rx="12" ry="12" style="stroke:#A80036;stroke-width:2.0;"/><text fill="#000000" font-family="sans-serif" font-size="14" lengthAdjust="spacing" textLength="75" x="390.5" y="86.5332">TowerLayer</text><path d="M410.5,44 L410.5,68 M410.5,56 L427.5,56 " fill="none" filter="url(#f1fzc7ugsiimat)" style="stroke:#A80036;stroke-width:2.0;"/><ellipse cx="439.5" cy="56" fill="#FEFECE" filter="url(#f1fzc7ugsiimat)" rx="12" ry="12" style="stroke:#A80036;stroke-width:2.0;"/><text fill="#000000" font-family="sans-serif" font-size="14" lengthAdjust="spacing" textLength="75" x="390.5" y="391.9551">TowerLayer</text><path d="M410.5,399.0313 L410.5,423.0313 M410.5,411.0313 L427.5,411.0313 " fill="none" filter="url(#f1fzc7ugsiimat)" style="stroke:#A80036;stroke-width:2.0;"/><ellipse cx="439.5" cy="411.0313" fill="#FEFECE" filter="url(#f1fzc7ugsiimat)" rx="12" ry="12" style="stroke:#A80036;stroke-width:2.0;"/><polygon fill="#A80036" points="155,117.9609,165,121.9609,155,125.9609,159,121.9609" style="stroke:#A80036;stroke-width:1.0;"/><line style="stroke:#A80036;stroke-width:1.0;" x1="28" x2="161" y1="121.9609" y2="121.9609"/><text fill="#000000" font-family="sans-serif" font-size="13" lengthAdjust="spacing" textLength="115" x="35" y="117.1045">cardSelected(index)</text><polygon fill="#A80036" points="290,148.3125,300,152.3125,290,156.3125,294,152.3125" style="stroke:#A80036;stroke-width:1.0;"/><line style="stroke:#A80036;stroke-width:1.0;" x1="167" x2="296" y1="152.3125" y2="152.3125"/><text fill="#000000" font-family="sans-serif" font-size="13" lengthAdjust="spacing" textLength="111" x="174" y="147.4561">cardSelected(Card)</text><line style="stroke:#A80036;stroke-width:1.0;" x1="302" x2="344" y1="182.6641" y2="182.6641"/><line style="stroke:#A80036;stroke-width:1.0;" x1="344" x2="344" y1="182.6641" y2="195.6641"/><line style="stroke:#A80036;stroke-width:1.0;" x1="303" x2="344" y1="195.6641" y2="195.6641"/><polygon fill="#A80036" points="313,191.6641,303,195.6641,313,199.6641,309,195.6641" style="stroke:#A80036;stroke-width:1.0;"/><text fill="#000000" font-family="sans-serif" font-size="13" lengthAdjust="spacing" textLength="115" x="309" y="177.8076">changCursorSprite()</text><polygon fill="#A80036" points="155,222.0156,165,226.0156,155,230.0156,159,226.0156" style="stroke:#A80036;stroke-width:1.0;"/><line style="stroke:#A80036;stroke-width:1.0;" x1="28" x2="161" y1="226.0156" y2="226.0156"/><text fill="#000000" font-family="sans-serif" font-size="13" lengthAdjust="spacing" textLength="104" x="35" y="221.1592">selectedPosition()</text><polygon fill="#A80036" points="419,252.3672,429,256.3672,419,260.3672,423,256.3672" style="stroke:#A80036;stroke-width:1.0;"/><line style="stroke:#A80036;stroke-width:1.0;" x1="167" x2="425" y1="256.3672" y2="256.3672"/><text fill="#000000" font-family="sans-serif" font-size="13" lengthAdjust="spacing" textLength="237" x="174" y="251.5107">canUpdateTowerInIndex(index, cardType)</text><polygon fill="#A80036" points="178,282.7188,168,286.7188,178,290.7188,174,286.7188" style="stroke:#A80036;stroke-width:1.0;"/><line style="stroke:#A80036;stroke-width:1.0;" x1="172" x2="430" y1="286.7188" y2="286.7188"/><text fill="#000000" font-family="sans-serif" font-size="13" lengthAdjust="spacing" textLength="22" x="184" y="281.8623">true</text><polygon fill="#A80036" points="419,313.0703,429,317.0703,419,321.0703,423,317.0703" style="stroke:#A80036;stroke-width:1.0;"/><line style="stroke:#A80036;stroke-width:1.0;" x1="167" x2="425" y1="317.0703" y2="317.0703"/><text fill="#000000" font-family="sans-serif" font-size="13" lengthAdjust="spacing" textLength="170" x="174" y="312.2139">updateTowerWithIndex(index)</text><line style="stroke:#A80036;stroke-width:1.0;" x1="167" x2="209" y1="347.4219" y2="347.4219"/><line style="stroke:#A80036;stroke-width:1.0;" x1="209" x2="209" y1="347.4219" y2="360.4219"/><line style="stroke:#A80036;stroke-width:1.0;" x1="168" x2="209" y1="360.4219" y2="360.4219"/><polygon fill="#A80036" points="178,356.4219,168,360.4219,178,364.4219,174,360.4219" style="stroke:#A80036;stroke-width:1.0;"/><text fill="#000000" font-family="sans-serif" font-size="13" lengthAdjust="spacing" textLength="66" x="174" y="342.5654">usingCard()</text><!--MD5=[4689662b141947eb4c45a6d27dbf97d3]
@startuml
actor Player as Player
boundary UILayer as UILayer
boundary MapLayer as MapLayer
boundary TowerLayer as TowerLayer

Player -> UILayer : cardSelected(index)
UILayer -> MapLayer : cardSelected(Card)
MapLayer -> MapLayer : changCursorSprite()

Player -> UILayer : selectedPosition()
UILayer -> TowerLayer : canUpdateTowerInIndex(index, cardType)
TowerLayer -> UILayer : true
UILayer -> TowerLayer : updateTowerWithIndex(index)
UILayer -> UILayer : usingCard()

@enduml

PlantUML version 1.2022.0(Tue Jan 11 08:16:42 PST 2022)
(GPL source distribution)
Java Runtime: OpenJDK Runtime Environment
JVM: OpenJDK 64-Bit Server VM
Default Encoding: Cp1252
Language: en
Country: US
--></g></svg>